<?xml version="1.0" encoding="UTF-8"?>
<svg width="107px" height="99px" viewBox="0 0 107 99" version="1.1" xmlns="http://www.w3.org/2000/svg" xmlns:xlink="http://www.w3.org/1999/xlink">
    <!-- Generator: Sketch 52.6 (67491) - http://www.bohemiancoding.com/sketch -->
    <title>quick-facts-grad-hat</title>
    <desc>Created with Sketch.</desc>
    <g id="Overview-pages" stroke="none" stroke-width="1" fill="none" fill-rule="evenodd">
        <g id="Tuition-&amp;-Aid" transform="translate(-267.000000, -1243.000000)" fill="#444444">
            <g id="Cost?" transform="translate(228.092036, 734.985877)">
                <g id="Facts">
                    <g id="Fact-#1" transform="translate(0.000000, 497.000000)">
                        <path d="M113.73661,99.2548168 C114.629818,99.4782253 115.173086,100.382991 114.949882,101.276234 L113.283561,107.941969 C113.093554,108.698511 112.415348,109.203524 111.668794,109.203524 C111.535418,109.203524 111.398722,109.188487 111.263784,109.15353 C110.370575,108.930122 109.825745,108.026919 110.050707,107.132113 L111.717028,100.466378 C111.93867,99.5746971 112.843401,99.0280885 113.73661,99.2548168 Z M91.8579958,64.2035238 C91.6290133,64.2035238 91.3998244,64.1583832 91.1850888,64.0666253 L40.0889573,42.4666253 C39.4298842,42.1894535 39,41.5323832 39,40.8033832 L39,39.0034535 C39,38.0099378 39.7895663,37.2035238 40.7620708,37.2035238 C41.7345754,37.2035238 42.5239352,38.0099378 42.5239352,39.0034535 L42.5239352,39.6010394 L91.8579958,60.4557972 L110.562913,52.5466957 C111.45964,52.1703832 112.493881,52.6023832 112.865746,53.5222816 C113.237403,54.4402816 112.811029,55.4932816 111.912443,55.87318 L92.5311094,64.0668363 C92.3161673,64.1585941 92.0869783,64.2035238 91.8579958,64.2035238 Z M112.817092,81.4841346 C113.247546,82.3699314 112.89215,83.4417371 112.02468,83.8800219 C108.122294,85.8520941 101.479277,88.2035238 91.9996535,88.2035238 C64.8767523,88.2035238 57.4288133,69.9597594 57.1242759,69.184897 C57.0420405,68.9720457 57,68.7466121 57,68.5192912 L57,55.9929423 C57,55.0052286 57.7840044,54.2035238 58.7499109,54.2035238 C59.7158174,54.2035238 60.4998218,55.0052286 60.4998218,55.9929423 L60.4998218,68.1470636 C61.5079739,70.387559 68.5201271,83.8481467 90.2495375,84.5567421 L90.2495375,68.5192912 C90.2495375,67.5315775 91.0335419,66.7298727 91.9994484,66.7298727 C92.9653549,66.7298727 93.7493593,67.5315775 93.7493593,68.5192912 L93.7493593,84.5728895 C101.599657,84.3061439 107.150646,82.3521064 110.473897,80.6717349 C111.343623,80.2332403 112.390125,80.5983379 112.817092,81.4841346 Z M117.5,101.203524 C118.329544,101.203524 119,101.920347 119,102.803486 L119,107.603561 C119,108.4867 118.329544,109.203524 117.5,109.203524 C116.670456,109.203524 116,108.4867 116,107.603561 L116,102.803486 C116,101.920347 116.670456,101.203524 117.5,101.203524 Z M143.233199,37.6032247 C144.210177,37.6032247 144.999793,38.3917188 144.999793,39.3633629 L144.999793,41.1232948 C144.999793,41.8360951 144.568755,42.4802141 143.906256,42.7512267 L120.266439,52.4435368 L120.266439,74.2751078 C122.432396,72.0047069 123.494257,69.7043998 123.799834,68.958187 L123.799834,56.9637135 C123.799834,55.9922757 124.58945,55.2037816 125.566429,55.2037816 C126.543407,55.2037816 127.333023,55.9922757 127.333023,56.9637135 L127.333023,69.2836496 C127.333023,69.4789684 127.299484,69.6742872 127.235925,69.8590873 C127.156425,70.0843124 125.338488,75.1636331 120.266439,78.9776096 L120.266439,88.9673323 C122.317701,89.6978701 123.799834,91.6320833 123.799834,93.9235217 C123.799834,96.8345354 121.421878,99.2035238 118.499845,99.2035238 C115.577811,99.2035238 113.199855,96.8345354 113.199855,93.9235217 C113.199855,91.6318771 114.682196,89.6976638 116.733251,88.9673323 L116.733251,51.24873 L116.733251,51.2468738 L116.733251,45.6077903 L96.5721727,38.1083312 C95.346136,38.882594 93.768561,39.3631567 92.0001035,39.3631567 C88.0375331,39.3631567 84.9335197,37.043462 84.9335197,34.0831546 C84.9335197,31.1228472 88.0375331,28.8031525 92.0001035,28.8031525 C95.9626739,28.8031525 99.0666874,31.1228472 99.0666874,34.0831546 C99.0666874,34.4756485 99.0047851,34.8522611 98.9023049,35.218355 L118.330286,42.4449454 L138.613305,34.0831546 L91.9998965,14.8674533 L45.3864875,34.0831546 L91.9998965,53.2988558 L109.85051,45.9419155 C110.751508,45.5723153 111.785006,45.9965717 112.157869,46.8941721 C112.530731,47.7936287 112.103213,48.8232291 111.200351,49.1928292 L92.6750241,56.8294447 C92.459505,56.9193698 92.2299078,56.963301 92.0001035,56.963301 C91.7702993,56.963301 91.5407021,56.9191635 91.325183,56.8294447 L40.0918807,35.7094365 C39.4310382,35.4384239 39,34.7959549 39,34.0831546 C39,33.3703543 39.4310382,32.7297416 40.0918807,32.4568727 L91.325183,11.3368645 C91.7578774,11.1590769 92.2419155,11.1590769 92.674817,11.3368645 L143.909983,32.4566665 C144.568962,32.7295353 145,33.3701481 145,34.0829483 C145,34.7957486 144.568755,35.4382176 143.908119,35.7092302 L120.266646,45.4561965 L120.266646,48.6365728 L141.466605,39.9439569 L141.466605,39.3631567 C141.466605,38.3917188 142.25622,37.6032247 143.233199,37.6032247 Z M91.9998965,35.8430865 C94.1569509,35.8430865 95.5332919,34.8013174 95.5332919,34.0831546 C95.5332919,33.3651981 94.1571579,32.3232227 91.9998965,32.3232227 C89.8426351,32.3232227 88.466501,33.3649918 88.466501,34.0831546 C88.466501,34.8011111 89.8428421,35.8430865 91.9998965,35.8430865 Z M118.499845,95.6832474 C119.47496,95.6832474 120.266439,94.8928971 120.266439,93.9233155 C120.266439,92.9535276 119.47496,92.1633835 118.499845,92.1633835 C117.524729,92.1633835 116.733251,92.9535276 116.733251,93.9233155 C116.733251,94.8931033 117.524729,95.6832474 118.499845,95.6832474 Z M125.28314,100.465863 L126.949801,107.131991 C127.17322,108.026849 126.629905,108.930301 125.736618,109.153527 C125.601473,109.188486 125.464961,109.203524 125.331573,109.203524 C124.584954,109.203524 123.906689,108.698482 123.716665,107.941895 L122.050199,101.275766 C121.82678,100.38247 122.370095,99.4774564 123.263382,99.25423 C124.153153,99.029246 125.059915,99.5743245 125.28314,100.465863 Z" id="quick-facts-grad-hat"></path>
                    </g>
                </g>
            </g>
        </g>
    </g>
</svg>