<?xml version="1.0" encoding="UTF-8"?>
<svg width="106px" height="99px" viewBox="0 0 106 99" version="1.1" xmlns="http://www.w3.org/2000/svg" xmlns:xlink="http://www.w3.org/1999/xlink">
    <!-- Generator: Sketch 56.2 (81672) - https://sketch.com -->
    <title>Combined Shape</title>
    <desc>Created with Sketch.</desc>
    <g id="Overview-pages" stroke="none" stroke-width="1" fill="none" fill-rule="evenodd">
        <g id="Home-—-Wireframe" transform="translate(-1190.000000, -2329.000000)" fill="#444444" fill-rule="nonzero">
            <g id="Full-Shield-+-Facts-+-Title-Mask" transform="translate(0.000000, 2199.000000)">
                <g id="Facts" transform="translate(80.000000, 129.000000)">
                    <g id="Fact-#3" transform="translate(1063.000000, 0.500000)">
                        <path d="M91.416,1.086 C91.788,1.458 92,1.974 92,2.5 C92,3.026 91.788,3.542 91.416,3.914 C91.042,4.286 90.528,4.5 90,4.5 C89.474,4.5 88.958,4.286 88.586,3.914 C88.214,3.542 88,3.026 88,2.5 C88,1.974 88.214,1.458 88.586,1.086 C88.958,0.714 89.474,0.5 90,0.5 C90.528,0.5 91.042,0.714 91.416,1.086 Z M119.897796,36.0855798 C120.176138,37.5738126 119.881554,39.0823706 119.067845,40.3337612 C118.254135,41.5851519 117.025247,42.419555 115.607751,42.6829268 C114.208934,42.9424476 112.829201,42.5943517 111.724562,41.8121523 L111.724562,51.7785623 C111.724562,54.8247754 109.372762,57.3031665 106.482144,57.3031665 C105.940077,57.3031665 105.417094,57.216089 104.92497,57.0543432 C104.143947,59.0731707 102.261533,60.5 100.068496,60.5 C97.875459,60.5 95.9936539,59.0729568 95.2126307,57.0541292 C94.7205069,57.2158751 94.1975239,57.3029525 93.6554568,57.3029525 C91.3525854,57.3029525 89.3932262,55.7295678 88.6909753,53.5496363 C88.2305228,53.6895593 87.7448957,53.7659392 87.2424178,53.7659392 C84.3517995,53.7659392 82,51.2875481 82,48.241335 L82,40.7464698 L82,35.6688062 L82,29.4291827 C82,24.4169876 83.8548032,19.707531 87.2227247,16.1683783 L88.8706492,14.4368849 L88.8706492,10.2691485 C88.8706492,9.08750535 89.7795758,8.1296534 90.9008629,8.1296534 C92.0221499,8.1296534 92.9310766,9.08750535 92.9310766,10.2691485 L92.9310766,15.3249893 C92.9310766,15.8934531 92.71628,16.4385965 92.3343968,16.8399658 L90.0897925,19.1985451 C87.491322,21.9289688 86.0604274,25.5624733 86.0604274,29.4293967 L86.0604274,35.6690201 L86.0604274,40.7466838 L86.0604274,48.241549 C86.0604274,48.9283269 86.5907192,49.487163 87.2424178,49.487163 C87.8417369,49.487163 88.337109,49.0143346 88.413242,48.4043646 L88.413242,42.8547283 C88.413242,41.6730852 89.3221687,40.7152332 90.4434557,40.7152332 C90.4452829,40.7152332 90.4473131,40.7154472 90.4491403,40.7154472 C90.4509675,40.7154472 90.4529977,40.7152332 90.4548249,40.7152332 C91.5761119,40.7152332 92.4850386,41.6730852 92.4850386,42.8547283 L92.4850386,48.241549 C92.4850386,48.3577236 92.4803691,48.4726145 92.4736694,48.5870774 L92.4736694,51.7787762 C92.4736694,52.4655541 93.0039612,53.0243902 93.6556598,53.0243902 C94.2549789,53.0243902 94.7503511,52.5515618 94.8264841,51.9415918 L94.8264841,42.8547283 C94.8264841,41.6730852 95.7354107,40.7152332 96.8566978,40.7152332 C96.858525,40.7152332 96.8605552,40.7154472 96.8623824,40.7154472 C96.8642095,40.7154472 96.8662398,40.7152332 96.868067,40.7152332 C97.989354,40.7152332 98.8982806,41.6730852 98.8982806,42.8547283 L98.8982806,51.7785623 C98.8982806,51.8947368 98.8936112,52.0096277 98.8869115,52.1240907 L98.8869115,54.9756098 C98.8869115,55.6623877 99.4172033,56.2212238 100.068902,56.2212238 C100.7206,56.2212238 101.250892,55.6623877 101.250892,54.9756098 L101.250892,52.1253744 C101.244193,52.0106975 101.239523,51.8951647 101.239523,51.7785623 L101.239523,42.8547283 C101.239523,41.6730852 102.14845,40.7152332 103.269737,40.7152332 C103.271564,40.7152332 103.273594,40.7154472 103.275421,40.7154472 C103.277249,40.7154472 103.279076,40.7152332 103.281106,40.7152332 C104.402393,40.7152332 105.31132,41.6730852 105.31132,42.8547283 L105.31132,51.9422336 C105.387656,52.5517758 105.882825,53.0241763 106.481941,53.0241763 C107.133639,53.0241763 107.663931,52.4653402 107.663931,51.7785623 L107.663931,34.3756953 C107.663931,33.0205392 108.590521,31.9189131 109.867119,31.7563115 C111.143921,31.593068 112.292615,32.4311083 112.598975,33.7473256 L113.468109,37.482884 C113.624842,38.1561831 114.255832,38.5902867 114.902455,38.4687634 C115.236628,38.406718 115.526543,38.2098845 115.718398,37.9148481 C115.910253,37.6198117 115.979687,37.2640137 115.914111,36.9131365 L114.232079,27.9244758 C113.702802,25.0960633 112.398999,22.5250321 110.461769,20.4890886 L106.989088,16.8397518 C106.607205,16.4383825 106.392408,15.8932392 106.392408,15.3247754 L106.392408,2.63949508 C106.392408,1.45785195 107.301335,0.5 108.422622,0.5 C109.543909,0.5 110.452836,1.45785195 110.452836,2.63949508 L110.452836,14.4368849 L113.328837,17.4593496 C115.840008,20.0979889 117.529958,23.4306804 118.215764,27.0969191 L119.897796,36.0855798 Z M98.2886465,78.2221858 C99.7545732,80.7867375 98.8816889,84.0777494 96.3425201,85.5583303 L90.0953948,89.2012375 L89.7430699,89.4067178 L85.8629663,91.6692885 C85.8629663,91.6694964 85.8627604,91.6694964 85.8627604,91.6694964 L80.6623137,94.7019941 C76.4844534,97.1380167 71.6182108,97.7812864 66.9605627,96.5138808 L64.6816736,95.8934885 L58.9750817,99.2211041 C58.6507616,99.4101543 58.2965835,99.5 57.9473474,99.5 C57.2356965,99.5 56.5436078,99.127099 56.1622485,98.4599121 C55.5935044,97.465163 55.9310032,96.1931819 56.9159066,95.6189602 L63.362772,91.8595865 C63.8365882,91.5831864 64.3995666,91.508523 64.9281569,91.6524424 L68.0323633,92.4974488 C71.6258298,93.4753518 75.3801178,92.9791212 78.6033445,91.0996423 L87.6841007,85.8043659 L94.283551,81.9561864 C94.8560016,81.622177 95.0528588,80.8801187 94.7223612,80.3019455 C94.5621573,80.0218019 94.3037309,79.821521 93.9944428,79.7377067 C93.7364281,79.6678268 93.4693531,79.6873765 93.2267823,79.7892847 L88.6004336,82.4869411 C88.2761136,82.6759913 87.9219355,82.7658369 87.5726994,82.7658369 C86.8408685,82.7658369 86.148368,82.3538365 85.7818348,81.7155582 C85.2130906,80.7208091 85.5505894,79.4488281 86.5354929,78.8746064 L91.0255241,76.2563968 C91.1225113,76.2000353 91.2211458,76.1478334 91.320398,76.0979191 L93.9796167,74.5472502 C94.5520674,74.2132408 94.7489245,73.4711825 94.4184269,72.8930093 C94.1142868,72.3612148 93.4689413,72.151783 92.9220244,72.3807645 L85.3481725,76.7973423 C85.0238524,76.9863925 84.6696743,77.0762381 84.3204382,77.0762381 C83.7529296,77.0762381 83.2006588,76.8358179 82.805709,76.4013561 C82.7011029,76.2871773 82.6067927,76.1605199 82.5295737,76.0259594 C81.9608295,75.0312103 82.2983283,73.7592293 83.2832317,73.1850076 L90.7215899,68.8476686 C90.8183711,68.7913071 90.9165938,68.7395211 91.0152283,68.6898149 L93.3921341,67.3038629 C93.9645847,66.9698535 94.1614419,66.2277952 93.8309443,65.649622 C93.5002408,65.0712408 92.7655271,64.8726238 92.1930764,65.2064252 L89.8172002,66.5917532 C89.7247432,66.6535221 89.6308449,66.7138351 89.5340636,66.7701966 L82.0957055,71.1075356 C81.1105961,71.6817572 79.8514105,71.3410926 79.2828723,70.3463435 C79.2818427,70.3446797 79.281225,70.3428079 79.2801954,70.3411441 C79.2791658,70.3394803 79.2781362,70.3380245 79.2771066,70.3363607 C78.7083625,69.3416116 79.0458613,68.0696305 80.0307647,67.4954088 L87.5706402,63.0987967 C87.7959139,62.9361595 87.9610598,62.706346 88.0335427,62.4328576 C88.1163216,62.1204777 88.0736967,61.7941634 87.9136988,61.5140197 C87.7534949,61.2338761 87.4948625,61.0333873 87.1855744,60.9497809 C86.8760804,60.8661746 86.5529959,60.9090176 86.2758309,61.0708229 L71.7703838,69.5292059 C70.6409263,70.1882818 69.2528364,69.9014829 68.4697321,68.8476686 C67.6868337,67.7938543 67.8021475,66.3677631 68.7440142,65.4564123 L71.4168235,62.8696072 C71.8984645,62.403533 71.9400599,61.6340219 71.5111337,61.1180335 C71.2897724,60.8516163 70.9790429,60.6902269 70.6357784,60.663398 C70.2918961,60.6365691 69.9607808,60.7476283 69.7015306,60.9766098 L63.0623383,66.8377888 C60.9730993,68.6821197 59.491111,71.0884018 58.7767832,73.796457 L57.4961822,78.6512402 C57.3553346,79.1851145 57.009805,79.6403739 56.5359888,79.916774 L50.0891235,83.6761478 C49.7648034,83.8651979 49.4106253,83.9550435 49.0613892,83.9550435 C48.3497383,83.9552515 47.6576495,83.5821426 47.2762903,82.9149557 C46.7075461,81.9202066 47.0450449,80.6482255 48.0299484,80.0740038 L53.7365403,76.7463882 L54.7970155,72.7257966 C55.7230265,69.2155781 57.643825,66.0967704 60.3518462,63.7060865 L66.9910385,57.8449076 C68.0904321,56.8744917 69.4982901,56.403842 70.9530973,56.516357 C72.4087281,56.6301199 73.7272179,57.3147768 74.6657899,58.4445023 C75.5920069,59.5592535 76.0009591,60.9522766 75.9093258,62.3124395 L84.2164499,57.468471 C85.4466011,56.7509539 86.8793751,56.5604479 88.2514035,56.931893 C89.6232259,57.3031301 90.7699805,58.1918115 91.4799841,59.434052 C91.7520011,59.9096931 91.9467991,60.4154906 92.0637602,60.9362625 C94.1420856,60.6484237 96.2852751,61.624247 97.3972296,63.5694463 C98.1074391,64.8118948 98.2960595,66.2589916 97.9284968,67.6447356 C97.7415237,68.3497741 97.421116,68.9953316 96.9901307,69.554579 C97.3735491,69.9120897 97.710636,70.333033 97.9849182,70.8128336 C99.1524704,72.8553657 98.8351516,75.3575247 97.3751964,77.0404663 C97.728139,77.3852904 98.0363975,77.7808607 98.2886465,78.2221858 Z M151.972013,80.074935 C152.954863,80.6493555 153.291658,81.9213165 152.724716,82.9152179 C152.344152,83.5823943 151.653507,83.9552893 150.94334,83.9552893 C150.594626,83.9552893 150.241392,83.8654451 149.917749,83.676398 L143.484327,79.9170837 C143.011498,79.640896 142.666689,79.1854358 142.526135,78.6515699 L141.700073,75.514094 C140.743937,71.8818511 138.446169,68.8464898 135.229663,66.9668326 L130.040061,63.9343829 C130.040061,63.934175 130.039856,63.934175 130.039856,63.934175 L126.167843,61.6716401 L125.816253,61.4661631 L119.582154,57.8233136 C119.305362,57.6615108 118.983362,57.6188764 118.674308,57.7022735 C118.365665,57.7858785 118.107777,57.9863642 117.947907,58.2665034 C117.644812,58.7980816 117.787421,59.4673377 118.25614,59.8312898 L122.872225,62.5286956 C123.855074,63.1029081 124.191869,64.3748691 123.624311,65.3696024 C123.546431,65.5045767 123.452729,65.63144 123.347724,65.746033 C122.953803,66.179656 122.40289,66.4198645 121.837181,66.4198645 C121.488468,66.4200725 121.135234,66.3300203 120.81159,66.1409731 L116.330921,63.522805 C116.234342,63.4662364 116.140845,63.4063403 116.049197,63.3447804 L113.394496,61.7935121 C113.117704,61.6317094 112.795087,61.588867 112.48665,61.672472 C112.177801,61.756077 111.919913,61.9565627 111.760044,62.2367019 C111.600174,62.5168411 111.557843,62.8431503 111.64045,63.1555252 C111.712987,63.4290093 111.877583,63.6588191 112.102181,63.8214538 L119.62654,68.2182043 C120.609389,68.7924169 120.946184,70.0643778 120.378626,71.0591112 C120.300952,71.1940854 120.207044,71.3211567 120.102039,71.4353337 C119.707913,71.8691648 119.157205,72.1093732 118.591291,72.1093732 C118.242577,72.1095812 117.889343,72.019529 117.565699,71.8304818 L110.143058,67.4932115 C110.046478,67.4366429 109.95257,67.3765388 109.860306,67.314563 L107.48959,65.9292569 C107.213003,65.7676621 106.890797,65.7246118 106.581949,65.8082168 C106.2731,65.8920298 106.015212,66.0923075 105.855343,66.3724467 C105.525534,66.9508187 105.721981,67.6928653 106.293238,68.0266614 L108.663543,69.4115515 C108.762794,69.461673 108.861428,69.5138741 108.958419,69.5704427 L116.38106,73.907713 C117.36391,74.4819256 117.700705,75.7538865 117.133147,76.7486199 C117.055678,76.8838021 116.961359,77.0108734 116.856354,77.1252584 C116.462228,77.5588815 115.91152,77.7988819 115.345811,77.7988819 C114.997098,77.7990899 114.643864,77.7090377 114.32022,77.5199906 L106.761134,73.1030667 C106.519275,73.0013681 106.252962,72.9818186 105.99528,73.0516974 C105.686637,73.1355104 105.428749,73.3357881 105.26888,73.6159273 C104.939071,74.1942994 105.135518,74.9363459 105.706775,75.2701421 L120.181974,83.7283911 C121.309282,84.3870406 121.756424,85.7444783 121.245581,86.9561272 C120.734532,88.167984 119.456807,88.7804636 118.206822,88.411936 L114.659892,87.3672892 C114.020824,87.1794899 113.34148,87.5274282 113.114005,88.160497 C112.996466,88.4872221 113.013316,88.8399438 113.161678,89.1535666 C113.310041,89.4671894 113.570805,89.7017826 113.895887,89.8140878 L122.223704,92.690766 C124.8445,93.5960711 127.643042,93.6892428 130.316443,92.9598826 L135.109247,91.6527743 C135.63653,91.5086492 136.19854,91.5833114 136.671368,91.8597071 L143.10479,95.6190214 C144.08764,96.193234 144.424435,97.4651949 143.856877,98.4599282 C143.476313,99.1271046 142.785667,99.5 142.0755,99.5 C141.726787,99.5 141.373553,99.4101554 141.049909,99.2211083 L135.355217,95.8935453 L131.385803,96.9762511 C127.920451,97.921279 124.293175,97.8008628 120.896251,96.627273 L112.568639,93.7505948 C111.189814,93.2743373 110.084083,92.279604 109.454878,90.9494107 C108.825879,89.6192174 108.753958,88.1236858 109.252267,86.7379638 C109.744,85.3707514 110.732398,84.3163299 111.941695,83.7163287 L103.651894,78.872229 C101.118225,77.3916714 100.246955,74.1007117 101.709825,71.5362005 C101.98107,71.060567 102.316837,70.6373425 102.703977,70.2746382 C101.420704,68.6006661 101.186447,66.2380964 102.296083,64.2929278 C103.405719,62.3479673 105.544439,61.3719515 107.618431,61.6595777 C107.735148,61.1390221 107.92954,60.6332325 108.200784,60.157599 C108.909307,58.9153781 110.05367,58.0267109 111.422632,57.6554796 C112.22383,57.4379402 113.045783,57.4146473 113.835885,57.5752022 C113.952602,57.0997766 114.134459,56.632462 114.388442,56.1874004 C115.096965,54.9451796 116.241329,54.0565123 117.61029,53.6852811 C118.979047,53.3140498 120.409039,53.5045528 121.636625,54.2218506 L128.222313,58.0699692 L137.284134,63.3651617 C141.453077,65.8013537 144.431627,69.735781 145.670926,74.4438666 L146.277321,76.747372 L151.972013,80.074935 Z" id="Combined-Shape"></path>
                    </g>
                </g>
            </g>
        </g>
    </g>
</svg>