<?xml version="1.0" encoding="UTF-8"?>
<svg width="84px" height="92px" viewBox="0 0 84 92" version="1.1" xmlns="http://www.w3.org/2000/svg" xmlns:xlink="http://www.w3.org/1999/xlink">
    <!-- Generator: Sketch 53 (72520) - https://sketchapp.com -->
    <title>Like</title>
    <desc>Created with Sketch.</desc>
    <g id="Overview-pages" stroke="none" stroke-width="1" fill="none" fill-rule="evenodd">
        <g id="Academics-—-Wireframe" transform="translate(-138.000000, -1708.000000)" fill="#444444" stroke="#444444" stroke-width="0.3">
            <g id="Quick-Facts" transform="translate(0.000000, 1549.000000)">
                <g id="Full-Shield-+-Facts-+-Title-Mask">
                    <g id="Facts" transform="translate(80.000000, 160.000000)">
                        <g id="Fact-#1">
                            <path d="M116.5,0 C117.3283,0 118,0.746333333 118,1.66666667 L118,9.33333333 C118,10.2536667 117.3283,11 116.5,11 C115.6717,11 115,10.2536667 115,9.33333333 L115,1.66666667 C115,0.746333333 115.6717,0 116.5,0 Z M75.5,55 C76.328,55 77,55.672 77,56.5 C77,57.328 76.328,58 75.5,58 C74.672,58 74,57.328 74,56.5 C74,55.672 74.672,55 75.5,55 Z M141,51.5270936 C141,54.6047512 138.98173,57.1859335 136.227957,58.1307931 C136.989665,59.2437094 137.434783,60.5815172 137.434783,62.0197044 C137.434783,65.0975369 135.417583,67.6727734 132.67593,68.6192069 C133.435322,69.7371946 133.869565,71.0793744 133.869565,72.5123153 C133.869565,75.5899729 131.851296,78.1711552 129.097522,79.1160148 C129.85923,80.228931 130.304348,81.5667389 130.304348,83.0049261 C130.304348,86.8620099 127.105635,90 123.173913,90 L104.003739,90 C95.6654087,90 92.2369174,89.1217685 86.0129391,87.5270665 C85.2376826,87.3284064 84.3978957,87.1133079 83.4932217,86.8856182 C82.6586043,88.7186773 80.7838348,90 78.6086957,90 L60.7826087,90 C59.7982522,90 59,89.2169015 59,88.2512315 L59,46.2807882 C59,45.3151182 59.7982522,44.5320197 60.7826087,44.5320197 L78.6086957,44.5320197 C80.7984522,44.5320197 82.6840957,45.8304803 83.5101565,47.6831256 C94.4357652,45.0183522 108.913043,38.8041034 108.913043,27.7438424 L108.913043,25.9950739 C108.913043,22.1379901 112.111757,19 116.043478,19 C119.914591,19 123.077296,22.0484532 123.169457,25.8270172 C123.224183,26.2038768 123.264648,26.8024803 123.295309,27.8375764 C123.4561,33.2617315 122.622196,39.3551404 120.562035,44.5320197 L133.869565,44.5320197 C137.801287,44.5320197 141,47.6700099 141,51.5270936 Z M80.3913043,84.7536946 L80.3913043,49.7783251 C80.3913043,48.8140542 79.5916261,48.0295567 78.6086957,48.0295567 L62.5652174,48.0295567 L62.5652174,86.5024631 L78.6086957,86.5024631 C79.5916261,86.5024631 80.3913043,85.7179655 80.3913043,84.7536946 Z M133.869565,55.0246305 C135.838635,55.0246305 137.434783,53.4587833 137.434783,51.5270936 C137.434783,49.5985517 135.835426,48.0295567 133.869565,48.0295567 C131.837748,48.0295567 111.940448,48.0295567 110.695652,48.0295567 C109.711296,48.0295567 108.913043,47.2464581 108.913043,46.2807882 C108.913043,45.3151182 109.711296,44.5320197 110.695652,44.5320197 L116.698409,44.5320197 C120.575583,36.0824951 119.608696,26.7550887 119.608696,25.9950739 L119.608696,25.9896527 C119.604952,24.0640837 118.005774,22.4975369 116.043478,22.4975369 C114.077617,22.4975369 112.478261,24.066532 112.478261,25.9950739 L112.478261,27.7438424 C112.478261,40.8090665 96.8569043,48.1671847 83.9565217,51.1817118 L83.9565217,83.3919286 C85.0303652,83.6605394 86.015613,83.9128867 86.9138696,84.1430246 C93.0455087,85.7139433 96.1233609,86.5024631 104.003739,86.5024631 L123.173913,86.5024631 C125.139774,86.5024631 126.73913,84.933468 126.73913,83.0049261 C126.73913,81.0763842 125.139774,79.5073892 123.173913,79.5073892 L117.826087,79.5073892 C116.84173,79.5073892 116.043478,78.7242906 116.043478,77.7586207 C116.043478,76.7929507 116.84173,76.0098522 117.826087,76.0098522 C122.004165,76.0098522 122.915613,76.0098522 126.73913,76.0098522 C128.7082,76.0098522 130.304348,74.4440049 130.304348,72.5123153 C130.304348,70.5370813 128.681639,69.0147783 126.73913,69.0147783 L121.391304,69.0147783 C120.406948,69.0147783 119.608696,68.2316798 119.608696,67.2660099 C119.608696,66.3003399 120.406948,65.5172414 121.391304,65.5172414 L130.304348,65.5172414 C132.273417,65.5172414 133.869565,63.9513941 133.869565,62.0197044 C133.869565,60.0911626 132.270209,58.5221675 130.304348,58.5221675 L124.956522,58.5221675 C123.972165,58.5221675 123.173913,57.739069 123.173913,56.773399 C123.173913,55.8077291 123.972165,55.0246305 124.956522,55.0246305 C129.1346,55.0246305 130.046048,55.0246305 133.869565,55.0246305 Z M75.5,62 C76.3283,62 77,62.80604 77,63.8 L77,78.2 C77,79.19396 76.3283,80 75.5,80 C74.6717,80 74,79.19396 74,78.2 L74,63.8 C74,62.80604 74.6717,62 75.5,62 Z M101.166667,22 C102.179033,22 103,22.6717 103,23.5 C103,24.3283 102.179033,25 101.166667,25 L93.8333333,25 C92.8209667,25 92,24.3283 92,23.5 C92,22.6717 92.8209667,22 93.8333333,22 L101.166667,22 Z M138.166667,22 C139.179033,22 140,22.6717 140,23.5 C140,24.3283 139.179033,25 138.166667,25 L130.833333,25 C129.820967,25 129,24.3283 129,23.5 C129,22.6717 129.820967,22 130.833333,22 L138.166667,22 Z M132.454038,7.54583444 C133.181987,8.27398654 133.181987,9.45439081 132.454038,10.1823565 L127.182422,15.4540956 C126.454101,16.1818749 125.274283,16.1820613 124.545962,15.4540956 C123.818013,14.7259435 123.818013,13.5455393 124.545962,12.8175736 L129.817578,7.54583444 C130.545899,6.81805519 131.725903,6.81805519 132.454038,7.54583444 Z M107.454038,12.8175736 C108.181987,13.5457257 108.181987,14.72613 107.454038,15.4540956 C106.725903,16.1818749 105.546086,16.1820613 104.817578,15.4540956 L99.5459615,10.1823565 C98.8180128,9.45420439 98.8180128,8.27380012 99.5459615,7.54583444 C100.274283,6.81805519 101.454287,6.81805519 102.182422,7.54583444 L107.454038,12.8175736 Z" id="Like"></path>
                        </g>
                    </g>
                </g>
            </g>
        </g>
    </g>
</svg>