<?xml version="1.0" encoding="UTF-8"?>
<svg width="100px" height="90px" viewBox="0 0 100 90" version="1.1" xmlns="http://www.w3.org/2000/svg" xmlns:xlink="http://www.w3.org/1999/xlink">
    <!-- Generator: Sketch 51.2 (57519) - http://www.bohemiancoding.com/sketch -->
    <title>home</title>
    <desc>Created with Sketch.</desc>
    <defs></defs>
    <g id="Student-Life---Home" stroke="none" stroke-width="1" fill="none" fill-rule="evenodd">
        <g id="Campus-Life-—-Mockup" transform="translate(-658.000000, -1510.000000)" fill="#444444" fill-rule="nonzero">
            <g id="Quick-Facts" transform="translate(102.000000, 1009.000000)">
                <g id="Facts" transform="translate(0.000000, 495.000000)">
                    <g id="Fact-#1" transform="translate(515.000000, 6.000000)">
                        <g id="home" transform="translate(41.000000, 0.000000)">
                            <path d="M2.13724773,35.3885017 L0.708737698,36.5495336 C-0.0778356403,37.1888785 -0.23336467,38.3927126 0.361431196,39.2381988 C0.712487537,39.737429 1.24657173,40 1.78708421,40 C2.16224666,40 2.54044469,39.873513 2.86275227,39.6115178 L4.2912623,38.4504859 C5.07783564,37.811141 5.23336467,36.6073069 4.6385688,35.7618208 C4.0439515,34.9163346 2.92399963,34.7491568 2.13724773,35.3885017 Z" id="Shape"></path>
                            <path d="M99.2138488,36.416117 L51.4795104,0.39994905 C50.7728045,-0.13331635 49.7971226,-0.13331635 49.0904167,0.39994905 L7.78615121,31.5643506 C6.91366258,32.2227298 6.74114553,33.4622062 7.40090935,34.3330614 C8.06067318,35.2039166 9.30295438,35.3760716 10.175443,34.7174947 L12.5936527,32.8929681 L12.5936527,88.0234789 C12.5936527,89.1151115 13.4804022,90 14.5743306,90 L85.9955965,90 C87.0893268,90 87.9762744,89.1151115 87.9762744,88.0234789 L87.9762744,32.8929681 L96.8247551,39.5692611 C97.1822674,39.8390563 97.601775,39.969309 98.0177174,39.969309 C98.6172686,39.969309 99.2098874,39.6987233 99.5990906,39.1848278 C100.258854,38.3139726 100.086337,37.0744962 99.2138488,36.416117 Z M84.0149185,86.0471554 L16.5550086,86.0471554 L16.5550086,29.9040728 L50.2849636,4.45438683 L84.0149185,29.9040728 L84.0149185,86.0471554 Z" id="Shape"></path>
                            <path d="M48.3956782,9.88648791 C47.7445232,10.8702264 47.9147891,12.2709091 48.7758933,13.0147985 L52.8661867,16.547994 C53.2190341,16.85283 53.6330678,17 54.0435828,17 C54.6353109,17 55.2201971,16.6942706 55.6043218,16.1136304 C56.2554768,15.129892 56.0852109,13.7292092 55.2241067,12.9853198 L51.1338133,9.4521244 C50.2729047,8.70801168 49.0468332,8.90274946 48.3956782,9.88648791 Z" id="Shape"></path>
                            <path d="M58.8005298,18.4112995 L78.7668478,32.615917 C79.1308801,32.8749453 79.5580383,33 79.9815663,33 C80.5920516,33 81.1954781,32.7402127 81.5917792,32.2468255 C82.2635752,31.4107239 82.087912,30.2207119 81.1995117,29.588607 L61.2331937,15.3839895 C60.3447934,14.7518845 59.0796549,14.9175488 58.4080606,15.753081 C57.7364663,16.5891826 57.9121295,17.7791946 58.8005298,18.4112995 Z" id="Shape"></path>
                            <path d="M62.7873969,29 C57.5177418,29 52.745254,31.7444405 50.0001988,36.0427778 C47.2549448,31.7444405 42.4826558,29 37.2130007,29 C28.8245701,29 22,35.8994865 22,44.3800007 C22,51.5702901 28.3701421,57.7601531 33.48852,62.7339491 C34.3105059,63.5326022 35.0869695,64.2872429 35.8071762,65.0153557 C42.2009741,71.4793411 48.5923864,77.412365 48.6561972,77.47145 C49.0364775,77.8239507 49.5181393,78 50,78 C50.4834509,78 50.9665043,77.8227448 51.3469834,77.4682345 C51.4143723,77.405532 58.1469039,71.1272425 64.1928238,65.0151547 C64.9132293,64.286841 65.6894941,63.5324012 66.5116788,62.7335472 C71.6300567,57.7599521 78,51.5700892 78,44.3797997 C78.0001988,35.8994865 71.1758275,29 62.7873969,29 Z M63.756883,59.8357668 C62.9201869,60.6486888 62.1298082,61.4165935 61.3817712,62.173043 C57.0042739,66.5983931 52.2592188,71.1157872 49.9980121,73.2490792 C47.7962429,71.17648 43.2090249,66.8138324 38.6186264,62.173043 C37.8703906,61.4167945 37.0802107,60.6488897 36.2437133,59.8359678 C31.669019,55.3907218 25.9757479,49.8586323 25.9757479,44.3800007 C25.9757479,38.115779 31.0167975,33.0193915 37.2130007,33.0193915 C42.3114999,33.0193915 46.7794454,36.4961652 48.0779247,41.4743825 C48.3081205,42.356639 49.0975052,42.9716059 50,42.9716059 C50.9026936,42.9716059 51.6920783,42.356639 51.9220753,41.4743825 C53.2207534,36.4961652 57.6886989,33.0193915 62.7871981,33.0193915 C68.9834013,33.0193915 74.0242521,38.115779 74.0242521,44.3800007 C74.0244508,49.8584313 68.3311798,55.3907218 63.756883,59.8357668 Z" id="Shape"></path>
                            <path d="M64.1161604,50.4900632 L62.5048982,52.0856303 C61.8385371,52.7455422 61.8307434,53.8231543 62.4876166,54.4927683 C62.8191875,54.8306391 63.2566512,55 63.6942842,55 C64.1237847,55 64.553624,54.8369369 64.8838396,54.5101299 L66.4951018,52.9145627 C67.1614629,52.2546508 67.1692566,51.1770388 66.5123834,50.5074248 C65.8553409,49.8376406 64.7823521,49.8299811 64.1161604,50.4900632 Z" id="Shape"></path>
                            <path d="M56.5767144,57.584551 L48.5993788,65.5232609 C47.8083229,66.3105123 47.7990708,67.5960651 48.5788633,68.3948906 C48.9724805,68.7979585 49.4918058,69 50.0113322,69 C50.5212043,69 51.0314786,68.8054716 51.4232856,68.4156024 L59.4006212,60.4768925 C60.1916771,59.6896412 60.2009292,58.4040884 59.4211367,57.6052628 C58.6413442,56.8062342 57.3679715,56.7972997 56.5767144,57.584551 Z" id="Shape"></path>
                        </g>
                    </g>
                </g>
            </g>
        </g>
    </g>
</svg>