<?xml version="1.0" encoding="UTF-8"?>
<svg width="89px" height="96px" viewBox="0 0 89 96" version="1.1" xmlns="http://www.w3.org/2000/svg" xmlns:xlink="http://www.w3.org/1999/xlink">
    <!-- Generator: Sketch 53 (72520) - https://sketchapp.com -->
    <title>Combined Shape</title>
    <desc>Created with Sketch.</desc>
    <g id="Overview-pages" stroke="none" stroke-width="1" fill="none" fill-rule="evenodd">
        <g id="Academics-—-Wireframe" transform="translate(-927.000000, -1717.000000)" fill="#444444" fill-rule="nonzero" stroke="#444444" stroke-width="0.4">
            <g id="Quick-Facts" transform="translate(0.000000, 1549.000000)">
                <g id="Full-Shield-+-Facts-+-Title-Mask">
                    <g id="Facts" transform="translate(80.000000, 160.000000)">
                        <g id="Fact-#4" transform="translate(798.000000, 8.000000)">
                            <path d="M103.295456,33.9706133 C103.295456,33.1081035 103.993739,32.4081724 104.857714,32.4083555 L120.480841,32.4083555 C121.344816,32.4083555 122.043099,33.1082866 122.043099,33.9706133 C122.043099,34.8329401 121.344816,35.5328712 120.480841,35.5328712 L104.857714,35.5328712 C103.993739,35.5328712 103.295456,34.8329401 103.295456,33.9706133 Z M112.669369,43.3445264 C112.669369,42.4820165 113.367652,41.7820855 114.231627,41.7822686 L123.60554,41.7822686 C124.469514,41.7822686 125.167798,42.4821996 125.167798,43.3445264 C125.167798,44.2068531 124.469514,44.9067842 123.60554,44.9067842 L114.231627,44.9067842 C113.367652,44.9067842 112.669369,44.2068531 112.669369,43.3445264 Z M111.106928,26.1589581 L107.982229,26.1589581 C107.118255,26.1589581 106.419971,25.4590271 106.419971,24.5967003 C106.419971,23.7343735 107.118255,23.0344425 107.982229,23.0344425 L111.106928,23.0344425 C111.970903,23.0344425 112.669186,23.7343735 112.669186,24.5967003 C112.669186,25.4590271 111.970903,26.1589581 111.106928,26.1589581 Z M92.3591019,41.7820855 L107.982229,41.7820855 C108.846204,41.7820855 109.544487,42.4820165 109.544487,43.3443433 C109.544487,44.2066701 108.846204,44.9066011 107.982229,44.9066011 L92.3591019,44.9066011 C91.4951274,44.9066011 90.7968441,44.2066701 90.7968441,43.3443433 C90.7968441,42.4820165 91.4951274,41.7820855 92.3591019,41.7820855 Z M100.170757,85.5271351 C101.034732,85.5271351 101.733015,86.2272492 101.733015,87.089576 C101.733015,87.9519027 101.034732,88.6518338 100.170757,88.6518338 L70.4867602,88.6518338 C66.1793373,88.6518338 62.675105,85.1474184 62.675105,80.8401786 L62.675105,10.8029506 C60.8565292,11.4481395 59.5504062,13.1854258 59.5504062,15.2227873 C59.5504062,16.085114 58.852123,16.7850451 57.9881484,16.7850451 C57.1241739,16.7850451 56.4258906,16.085114 56.4258906,15.2227873 C56.4258906,10.9153644 59.930306,7.41113202 64.2375459,7.41113202 C65.1015204,7.41113202 65.7998037,8.11106307 65.7998037,8.97338983 L65.7998037,80.8401786 C65.7998037,83.4242295 67.9027092,85.5271351 70.4867602,85.5271351 L100.170757,85.5271351 Z M76.7359745,35.5328712 C75.872,35.5328712 75.1737167,34.8329401 75.1737167,33.9706133 C75.1737167,33.1082866 75.872,32.4083555 76.7359745,32.4083555 L98.6084993,32.4083555 C99.4724738,32.4083555 100.170757,33.1082866 100.170757,33.9706133 C100.170757,34.8329401 99.4724738,35.5328712 98.6084993,35.5328712 L76.7359745,35.5328712 Z M76.7359745,26.1589581 C75.872,26.1589581 75.1737167,25.4590271 75.1737167,24.5967003 C75.1737167,23.7343735 75.872,23.0344425 76.7359745,23.0344425 L82.9851889,23.0344425 C83.8491634,23.0344425 84.5474467,23.7343735 84.5474467,24.5967003 C84.5474467,25.4590271 83.8491634,26.1589581 82.9851889,26.1589581 L76.7359745,26.1589581 Z M101.733015,23.0342594 C102.596989,23.0342594 103.295456,23.7341904 103.295273,24.5965172 C103.295273,25.458844 102.596989,26.158775 101.733015,26.158775 L89.2344032,26.158775 C88.3704287,26.158775 87.6721454,25.458844 87.6721454,24.5965172 C87.6721454,23.7341904 88.3704287,23.0342594 89.2344032,23.0342594 L101.733015,23.0342594 Z M123.60554,1.1978022 C131.35934,1.1978022 137.666409,7.50487115 137.666226,15.2586718 L137.666226,80.8760631 C137.666226,82.2259432 137.29603,83.5679506 136.596099,84.7568997 C136.305544,85.2521426 135.783754,85.5271351 135.247867,85.5271351 C134.979099,85.5271351 134.707219,85.4582954 134.457309,85.3114618 C133.713621,84.8740736 133.466823,83.9163599 133.902747,83.1726718 C134.319812,82.4634034 134.541711,81.6680855 134.541711,80.8760631 L134.541711,15.2586718 C134.541711,9.22824309 129.634504,4.32250091 123.60554,4.32250091 L64.2373628,4.32250091 C58.213159,4.32250091 53.312177,9.21872271 53.3011919,15.2399972 C53.3074168,19.1254109 55.4024497,22.7468171 58.7706505,24.698129 C59.5158033,25.1294754 59.7735859,26.0855413 59.3393101,26.8323419 C58.9066821,27.5774948 57.9520808,27.832165 57.2052802,27.4010016 C52.8855907,24.9011694 50.1968156,20.2596178 50.1764932,15.2773464 L50.1764932,15.2586718 L50.1764932,15.2398141 L50.1764932,15.2226042 L50.1764932,15.2039296 C50.2061529,7.47667618 56.5022368,1.1978022 64.2373628,1.1978022 L123.60554,1.1978022 Z M128.292496,73.0285233 C128.292496,78.198273 124.088333,82.4024364 118.918583,82.4024364 C113.748834,82.4024364 109.54467,78.198273 109.54467,73.0285233 C109.54467,67.8587737 113.748834,63.6546103 118.918583,63.6546103 C124.088333,63.6546103 128.292496,67.8587737 128.292496,73.0285233 Z M118.918583,79.2777377 C122.365144,79.2777377 125.167798,76.474901 125.167798,73.0285233 C125.167798,69.5821456 122.365144,66.779309 118.918583,66.779309 C115.472206,66.779309 112.669369,69.5821456 112.669369,73.0285233 C112.669369,76.474901 115.472022,79.2777377 118.918583,79.2777377 Z M116.098537,83.9663419 C116.846985,84.3975053 117.10312,85.3537543 116.671957,86.1001887 L112.042855,94.1179968 C111.770975,94.5866925 111.275732,94.8820074 110.736732,94.8992173 L110.688214,94.8992173 C110.164776,94.8992173 109.674294,94.6368576 109.385204,94.1978216 L107.890138,91.9339849 L105.182688,91.7715892 C104.640576,91.7404649 104.156135,91.4294048 103.9,90.9530196 C103.643865,90.4766344 103.651738,89.9001021 103.92197,89.4314065 L108.604166,81.3213239 C109.036978,80.5730587 109.993043,80.3167407 110.739844,80.7495519 C111.486645,81.1808983 111.74278,82.1369642 111.311616,82.8837648 L107.891603,88.8048922 L108.857189,88.8627468 C109.347855,88.8907587 109.796228,89.1501891 110.06646,89.5610301 L110.6007,90.36715 L113.964324,84.538114 C114.397135,83.7913134 115.353384,83.5351786 116.098537,83.9663419 Z M129.273645,81.3947407 L133.915563,89.4315896 C134.184147,89.9002852 134.193667,90.4768175 133.93735,90.9532027 C133.681032,91.4295879 133.196774,91.7404649 132.654661,91.7717723 L129.948676,91.9358158 L128.455075,94.1980046 C128.16452,94.6368576 127.67239,94.8994004 127.1506,94.8994004 L127.102083,94.8994004 C126.563083,94.8821904 126.06784,94.5868756 125.79596,94.1181799 L121.184068,86.1300315 C120.752904,85.3832309 121.009039,84.4269819 121.75584,83.9958185 C122.500993,83.5646551 123.457242,83.82079 123.891517,84.5675906 L127.237931,90.3669669 L127.769058,89.560847 C128.040939,89.1516538 128.489312,88.8922234 128.979794,88.8625637 L129.945381,88.8047091 L126.566012,82.9569985 C126.134849,82.210381 126.391166,81.254132 127.139432,80.8229686 C127.88312,80.3901575 128.840834,80.6464754 129.273645,81.3947407 Z M76.7359745,44.9067842 C75.872,44.9067842 75.1737167,44.2068531 75.1737167,43.3445264 C75.1737167,42.4821996 75.872,41.7822686 76.7359745,41.7822686 L86.1098876,41.7822686 C86.9738621,41.7822686 87.6721454,42.4821996 87.6721454,43.3445264 C87.6721454,44.2068531 86.9738621,44.9067842 86.1098876,44.9067842 L76.7359745,44.9067842 Z M76.7359745,54.2806972 C75.872,54.2806972 75.1737167,53.5807662 75.1737167,52.7184394 C75.1737167,51.8561127 75.872,51.1561816 76.7359745,51.1561816 L95.4838006,51.1561816 C96.3477751,51.1561816 97.0460584,51.8561127 97.0460584,52.7184394 C97.0460584,53.5807662 96.3477751,54.2806972 95.4838006,54.2806972 L76.7359745,54.2806972 Z M76.9014827,73.7268066 C74.8361094,69.5977078 74.5472024,65.7840631 76.1048832,63.2626269 C77.1936851,61.500258 79.0825652,60.5300947 81.422931,60.5300947 C83.4758546,60.5300947 84.6038366,61.5361426 85.1897062,62.3814425 C86.530249,64.3155444 86.3801199,67.418273 85.8662024,70.1101606 C87.1706776,69.3274754 87.708213,69.5523029 88.1252789,69.724219 C88.7376957,69.9772414 89.1408471,70.5380284 89.2204888,71.2192849 C90.2578441,70.4911589 91.3935156,69.9038246 92.3591019,69.9038246 C93.1683342,69.9038246 93.8620404,70.274204 94.2604317,70.9193929 C94.637036,71.5286972 94.6681603,72.2848351 94.5416491,73.0285233 L98.6083162,73.0285233 C99.4722908,73.0285233 100.170574,73.7284544 100.170574,74.5907811 C100.170574,75.4531079 99.4722908,76.153039 98.6083162,76.153039 L92.3591019,76.153039 C91.8186372,76.153039 91.3171695,75.8718216 91.0311919,75.4124632 C90.746679,74.9532879 90.7201318,74.3782203 90.9592398,73.8939625 C90.9779144,73.858078 90.9967721,73.8205457 91.0154467,73.7815488 C90.3186281,74.2844812 89.4907211,74.9829476 88.7766926,75.6953284 C88.3283193,76.1420539 87.6580479,76.2764377 87.0738261,76.0327526 C86.4896043,75.7921799 86.1098876,75.2218725 86.1098876,74.5907811 L86.1098876,73.8267706 C85.4802609,74.3657706 84.756895,75.0298171 84.0897361,75.6953284 C83.5694107,76.214006 82.7554181,76.2998725 82.1398889,75.9045936 C81.5212473,75.5062023 81.2634647,74.7312067 81.5212473,74.0422608 C82.6788889,70.9488695 83.7849008,65.8386222 82.6210343,64.1606551 C82.4460058,63.910562 82.1679008,63.6544272 81.422748,63.6544272 C80.1697194,63.6544272 79.2760853,64.0747886 78.7636325,64.9043433 C77.8013417,66.462024 78.1481033,69.2366656 79.6947989,72.330057 C80.0823882,73.1019401 79.7682157,74.0407961 78.9965156,74.4267377 C78.2248156,74.8110315 77.2857765,74.4985067 76.9014827,73.7268066 Z M118.918583,52.7184394 C118.918583,53.5807662 118.2203,54.2806972 117.356325,54.2806972 L101.733198,54.2806972 C100.869224,54.2806972 100.17094,53.5807662 100.17094,52.7184394 C100.17094,51.8561127 100.869224,51.1561816 101.733198,51.1561816 L117.356325,51.1561816 C118.2203,51.1561816 118.918583,51.8561127 118.918583,52.7184394 Z" id="Combined-Shape"></path>
                        </g>
                    </g>
                </g>
            </g>
        </g>
    </g>
</svg>